<?xml version="1.0" encoding="UTF-8"?>
<!DOCTYPE svg PUBLIC "-//W3C//DTD SVG 1.1//EN" "http://www.w3.org/Graphics/SVG/1.1/DTD/svg11.dtd">
<!-- Creator: CorelDRAW 2021 (64-Bit) -->
<svg xmlns="http://www.w3.org/2000/svg" xml:space="preserve" width="102mm" height="102mm" version="1.1" style="shape-rendering:geometricPrecision; text-rendering:geometricPrecision; image-rendering:optimizeQuality; fill-rule:evenodd; clip-rule:evenodd"
viewBox="0 0 2243.4 2243.4"
 xmlns:xlink="http://www.w3.org/1999/xlink"
 xmlns:xodm="http://www.corel.com/coreldraw/odm/2003">
 <defs>
  <style type="text/css">
   <![CDATA[
    .str0 {stroke:black;stroke-width:43.99;stroke-miterlimit:22.9256}
    .fil0 {fill:white}
    .fil1 {fill:black}
   ]]>
  </style>
 </defs>
 <g id="Слой_x0020_1">
  <metadata id="CorelCorpID_0Corel-Layer"/>
  <rect class="fil0 str0" x="21.99" y="21.99" width="2199.41" height="2199.41" rx="219.94" ry="219.94"/>
  <path class="fil1" d="M497.58 972.44c0,-21.34 1.22,-44.98 3.77,-64.26 3.18,-24.11 7.6,-49.68 14.98,-72.2 1.25,-3.81 2.36,-7.3 3.44,-11.09 3.14,-11.07 7.28,-21.53 11.51,-32.08l8.78 -20.28c3.02,-7.07 6.12,-12.8 9.5,-19.56 9.58,-19.17 21.06,-36.59 32.84,-54.34 7.6,-11.45 15.97,-22.72 25.33,-32.79 4.72,-5.08 8.61,-10.65 13.54,-15.52 1.29,-1.27 2.45,-2.29 3.6,-3.66 7.78,-9.31 17.3,-17.14 25.79,-25.73 11.15,-11.29 36.31,-30.86 48.38,-38.8 2.91,-1.92 5.64,-3.98 8.58,-5.95 20.67,-13.81 42.59,-26.17 65.38,-36.33 97.36,-43.43 194.68,-53.08 300.24,-30.09 15.78,3.44 30.5,8.14 44.61,12.85 14.13,4.71 28.39,9.96 41.74,16.37 3.42,1.64 6.1,2.72 9.46,4.4 16.05,8.04 32,15.81 46.85,25.8 3.11,2.1 5.91,3.72 8.85,5.68 2.96,1.98 5.73,3.91 8.59,5.94l33.11 25.01c13.24,10.79 25.27,22.49 37.39,34.6 8.52,8.52 16.17,17.69 24.09,26.77 7.97,9.14 14.84,19 22.12,28.73 12.23,16.35 23.91,35.23 32.99,53.53 1.73,3.49 3.21,6.29 4.94,9.59l9.14 19.26c1.54,3.45 2.68,6.54 4.25,10.28 21.22,50.51 35.38,113.21 35.38,168.03 0,47.22 -2.39,78.92 -13.74,124.3 -7.44,29.77 -16.88,58.79 -30.52,85.72l-9.69 19.37c-15.7,31.43 -38.53,63.87 -62.14,90.43l-40.06 40.51c-1.97,1.52 -2.16,1.84 -3.84,3.42 -7.48,7 -15.9,13.26 -24,19.59l-21.02 15.31c-11.94,7.94 -23.15,15.35 -35.83,22.29 -6.53,3.57 -12.18,6.74 -18.94,10.12l-19.81 9.25c-3.54,1.7 -6.49,2.79 -10.12,4.41 -17.33,7.74 -35.66,13.42 -54.01,18.64 -7.99,2.27 -14.95,3.73 -23.23,5.83 -15.82,4.02 -52.66,9.88 -69.59,10.32l-35.69 1.3c-13.34,-0.74 -28.04,-0.48 -41.23,-2.36 -4.55,-0.65 -9.27,-0.83 -13.13,-1.4 -17.68,-2.61 -33.33,-4.88 -49.32,-8.8 -39.33,-9.63 -72.2,-21.89 -106.34,-38.96 -3.11,-1.56 -6.52,-3.04 -9.63,-4.9l-27.49 -16.1c-19.64,-12.31 -41.02,-27.53 -58.15,-43.56 -1.6,-1.5 -2.35,-1.7 -3.98,-3.28 -6.25,-6.04 -12.42,-12.37 -19.09,-17.9 -1.47,-1.22 -2.04,-2.49 -3.35,-3.92 -3.41,-3.7 -7.66,-7.08 -10.88,-10.92l-10.26 -11.54c-23.24,-26.14 -42.07,-55.8 -59.07,-86.23 -27.53,-49.26 -43.16,-104.36 -51.18,-160.16 -2.34,-16.31 -3.85,-36.34 -3.85,-54.93zm450.22 -643.28l4.01 0c22.79,0.09 44.09,0.2 66.91,1.94 60.93,4.63 105.72,15.54 162.02,34.13 23.84,7.87 46.91,17.89 69.31,29.09 21.44,10.72 43.03,22.17 62.92,35.48l23.25 15.72c18.12,12.36 47.93,36.06 65.03,52.53l24.75 24.12 41.32 47.18c11.8,14.6 22.66,29.89 33.08,45.51 2.76,4.14 5.19,7.88 7.79,12.02l31.8 56.7c1.24,2.45 1.95,4.58 3.07,6.84l12.18 26.79c18.23,43.52 32.73,89.67 40.58,136.42 1.91,11.39 3.43,21.9 5.09,33.88 0.86,6.19 1.1,11.59 1.99,17.83 0.38,2.69 0.73,6.83 0.9,9.01 4.09,53.99 1.57,111.99 -7.4,163.57 -10.34,59.48 -28.56,117.1 -55.3,170.58l-12.12 23.55c-0.99,1.97 -1.47,2.96 -2.54,4.72 -5.34,8.77 -10.02,18.04 -15.59,26.67l-10.7 17.04c4.55,3.05 218.07,217.74 219.1,218.77l157.85 157.85c21.63,21.61 37.15,53.6 37.15,85.03 0,22.81 -2.88,40.92 -12.11,59.22 -13.95,27.67 -33.09,46.81 -60.76,60.76 -18.15,9.15 -36.15,12.11 -58.56,12.11 -32.09,0 -64.09,-15.42 -86.03,-37.48l-47.88 -47.88c-36.71,-36.71 -72.93,-72.93 -109.63,-109.63 -1.26,-1.26 -214.67,-215.91 -219.43,-219.1l-63.19 36.54c-3.57,1.92 -5.05,2.98 -9.18,4.68 -6.6,2.72 -12.56,6.31 -19.34,9.06l-19.9 8.49c-6.77,2.69 -13.65,5.34 -20.55,7.85l-16.04 5.75c-2.18,0.63 -3.4,0.93 -5.1,1.5 -54.03,18.12 -123.62,31.79 -195.4,31.79 -83.13,0 -151.86,-13.12 -225.46,-39.38 -5.04,-1.8 -9.82,-3.62 -14.38,-5.44l-67.24 -31.16c-12.46,-7.24 -25.42,-14.11 -37.55,-21.89 -22.25,-14.29 -35.91,-24.93 -57.49,-40.91l-51.77 -45.98c-3.41,-3.41 -6.9,-6.35 -9.74,-10.07 -2.88,-3.78 -6.57,-6.34 -9.71,-10.1l-9.27 -10.54c-3.36,-3.45 -6.03,-6.95 -9.25,-10.57 -18.78,-21.09 -39.18,-49.8 -54.05,-74.08 -1.42,-2.32 -2.36,-3.97 -3.71,-6.2l-14.53 -25.1c-1.38,-2.27 -2.09,-4.09 -3.39,-6.51l-10.13 -19.59c-1.29,-2.56 -1.86,-4.21 -3.08,-6.83 -1.05,-2.27 -2.14,-4.07 -3.08,-6.17 -8.27,-18.6 -16.26,-36.98 -22.72,-56.54 -6.52,-19.73 -13.01,-39.43 -17.84,-60.75 -13.35,-58.92 -17.57,-99.91 -17.57,-161.41 0,-25.96 2.71,-49.87 5.34,-73.26 3.15,-28.01 11.82,-70.4 20.67,-97.55 6.36,-19.52 11.99,-39.58 20.24,-58.36l11.78 -27.18c1.07,-2.64 1.9,-4.2 3.18,-6.73 3.26,-6.47 6,-13.73 9.74,-19.98 1.44,-2.4 2.19,-3.87 3.46,-6.44 9.53,-19.27 21.24,-37.58 33.11,-55.39 12.98,-19.47 26.91,-37.94 41.94,-55.8l27.91 -30.86c7.21,-9.34 29.51,-28.71 40.06,-38.53 1.35,-1.25 1.63,-1.22 2.95,-2.34l7.46 -6.41c3.7,-2.87 6.95,-5.9 10.85,-8.96l33.58 -25.2c3.86,-2.89 7.81,-5.29 11.84,-7.98l24.27 -15.35c29.14,-17.56 59.69,-32.85 91.26,-45.45 16.99,-6.78 40.24,-15.66 58.42,-20.18 10.45,-2.59 20.39,-5.96 30.81,-8.15 11.05,-2.32 21.29,-4.95 32.77,-6.86 10.93,-1.82 21.88,-3.92 33.72,-5.25l63.26 -5.23z"/>
  <path class="fil1" d="M611.17 1128.31c0,8.12 1.17,8.28 5.06,16.07 11.84,23.68 25.11,45.25 41.54,66.11 8.93,11.34 16.37,19.01 24.92,29.24 3.8,4.54 25.2,24.54 29.91,28.22 14.6,11.41 21.79,18.02 38.72,29.31 50.51,33.68 110.39,55.89 170.87,62.93 48.17,5.61 97.93,2.76 144.71,-9.29 14.94,-3.85 20.79,-20.26 8.76,-31.9 -4.27,-4.13 -8.77,-4.26 -15.25,-5.88 -11,-2.76 -23.18,-5.2 -33.89,-8.38 -10.96,-3.25 -21.48,-5.82 -32.52,-9.09 -29.95,-8.85 -65.07,-21.35 -93.45,-32.69 -9.84,-3.93 -19.53,-7.85 -29.38,-12.23 -36.09,-16.04 -70.58,-32.62 -104.82,-52.37 -13.91,-8.02 -33.11,-18.99 -45.8,-27.51l-74.94 -51.87c-8.07,-6.04 -7.9,-7.17 -17.92,-7.17 -8.1,0 -16.51,8.55 -16.51,16.51z"/>
 </g>
</svg>
